# xmcd CD database file
#
# Track frame offsets:
#	150
#	20978
#	43940
#	65905
#	87086
#	100385
#	113526
#	127656
#	139691
#	153185
#	167612
#	182136
#	195295
#	207188
#	218604
#	231665
#	244770
#	272958
#	285170
#	300285
#
# Disc length: 4216 seconds
#
# Revision: 0
# Processed by: cddbd v1.5.2PL0 Copyright (c) Steve Scherf et al.
# Submitted via: CDex 1.70beta2
#
DISCID=14107614
DTITLE=Dexter Gordon - Bebop Story Vol 1 1944-47
DYEAR=2008
DGENRE=Jazz
TTITLE0=I've Found A New Baby
TTITLE1=Rosetta
TTITLE2=Sweet Lorraine
TTITLE3=I BLowed And Gone
TTITLE4=Blow Mr. Dexter
TTITLE5=Dexter's Deck
TTITLE6=Dexter's Cuttin' Out
TTITLE7=Dextor's Minor Mad
TTITLE8=Long Tall Dexter
TTITLE9=Dexter Rides Again
TTITLE10=I Can't Escape From You
TTITLE11=Dexter Digs It
TTITLE12=Mischievous Lady
TTITLE13=Mischievous Lady
TTITLE14=Lullaby In Rhythm
TTITLE15=Lullaby In Rhythm
TTITLE16=The Case Pt. and 2
TTITLE17=Iridescene
TTITLE18=It's The Talk Of The Twon
TTITLE19=Blues Bikini
EXTD=YEAR: 2008
EXTT0=
EXTT1=
EXTT2=
EXTT3=
EXTT4=
EXTT5=
EXTT6=
EXTT7=
EXTT8=
EXTT9=
EXTT10=
EXTT11=
EXTT12=
EXTT13=
EXTT14=
EXTT15=
EXTT16=
EXTT17=
EXTT18=
EXTT19=
PLAYORDER=
